<svg width="38" height="33" viewBox="0 0 38 33" fill="none" xmlns="http://www.w3.org/2000/svg">
<circle cx="7" cy="30" r="2.5" fill="black" stroke="black"/>
<circle cx="26" cy="3" r="2.5" fill="black" stroke="black"/>
<path d="M7.01459 27.1969H7.82467" stroke="black" stroke-width="0.3" stroke-linecap="round"/>
<path d="M7.05183 27.1969H7.98297" stroke="black" stroke-width="0.3" stroke-linecap="round"/>
<path d="M7.38705 27.1783C7.38705 27.1272 7.49593 27.0809 7.5412 27.0758C7.56985 27.0726 7.62601 27.0495 7.6519 27.0339C7.68725 27.0127 7.72571 27.0119 7.7595 26.9941C7.83221 26.9558 7.90369 26.9114 7.98297 26.8896C8.05522 26.8697 8.13238 26.8465 8.20179 26.8198C8.27706 26.7908 8.16709 26.8452 8.14333 26.8524C8.03519 26.885 7.94124 26.9532 7.83399 26.9848C7.81214 26.9912 7.79268 27.0089 7.77295 27.02C7.75249 27.0314 7.72446 27.0327 7.70777 27.0479C7.67831 27.0747 7.63476 27.0791 7.60224 27.1017C7.57517 27.1205 7.52085 27.1264 7.48895 27.1363C7.4501 27.1485 7.39669 27.1422 7.36118 27.1638C7.33868 27.1774 7.30877 27.1876 7.28048 27.1876C7.24849 27.1876 7.23023 27.2062 7.20082 27.2062" stroke="black" stroke-width="0.3" stroke-linecap="round"/>
<path d="M7.07977 27.1131C7.11067 27.1075 7.13621 27.089 7.16875 27.0846C7.20506 27.0798 7.24504 27.0707 7.27531 27.05C7.30179 27.0318 7.33158 27.0446 7.35911 27.0293C7.38492 27.0149 7.40842 27.014 7.43671 27.0086C7.52252 26.9922 7.60514 26.9557 7.68915 26.9382C7.74957 26.9257 7.80761 26.9133 7.86658 26.8948C7.91548 26.8794 7.96713 26.8536 8.01815 26.8524C8.04714 26.8517 8.0612 26.8368 8.08488 26.825C8.11171 26.8115 8.14042 26.807 8.1692 26.7986C8.21122 26.7862 8.26367 26.7313 8.31197 26.7313C8.32046 26.7313 8.29658 26.7385 8.28869 26.7417C8.24236 26.7602 8.1999 26.7871 8.15264 26.8043C8.09797 26.8241 8.04104 26.8372 7.98504 26.8524C7.92276 26.8693 7.86263 26.8856 7.80606 26.9082" stroke="black" stroke-width="0.3" stroke-linecap="round"/>
<path d="M23.6941 1.3829C23.6941 1.42124 23.642 1.54719 23.6148 1.58117C23.5824 1.62168 23.5265 1.67679 23.5196 1.73186C23.5107 1.8028 23.4419 1.85224 23.4094 1.90633C23.3806 1.9544 23.3097 1.98048 23.2658 2.02441C23.2409 2.04936 23.2299 2.07439 23.2165 2.1046C23.1979 2.14632 23.1466 2.16389 23.131 2.2077C23.1226 2.23122 23.1011 2.27807 23.0843 2.29582C23.0508 2.33131 23.0701 2.35617 23.0561 2.40156C23.0352 2.46929 22.9954 2.52383 22.9724 2.58838C22.9581 2.62838 22.9327 2.6387 22.9327 2.68354C22.9327 2.72391 22.9179 2.7498 22.8922 2.77871C22.8705 2.80316 22.875 2.83433 22.8684 2.86419C22.8617 2.89415 22.8177 2.91844 22.8076 2.94614C22.7992 2.9692 22.8063 3.02876 22.7829 3.04483C22.7411 3.0736 22.7331 3.10846 22.7142 3.15586C22.6935 3.20746 22.6313 3.25072 22.6146 3.30919C22.5991 3.36362 22.5531 3.42502 22.508 3.46076C22.462 3.49719 22.4407 3.59853 22.4181 3.65021C22.3926 3.70852 22.3617 3.76205 22.3335 3.82557C22.3008 3.89906 22.3085 3.99546 22.2665 4.06261C22.2293 4.12216 22.2031 4.20089 22.2031 4.26969" stroke="black" stroke-width="0.3" stroke-linecap="round"/>
<path d="M27.5008 5.42755C27.44 5.43971 27.3993 5.5205 27.3422 5.53682C27.2724 5.55678 27.2113 5.59561 27.1448 5.62582C27.0144 5.68511 26.8967 5.74564 26.7862 5.847C26.6862 5.93867 26.5323 6.0008 26.4575 6.10959C26.4241 6.15816 26.3461 6.19984 26.3024 6.24354C26.2781 6.26783 26.1685 6.36878 26.1685 6.37924" stroke="black" stroke-width="0.3" stroke-linecap="round"/>
<path fill-rule="evenodd" clip-rule="evenodd" d="M24.4044 11.5735C24.172 11.6187 23.9296 11.6804 23.7043 11.7818C23.6288 11.8158 23.5951 11.9046 23.6291 11.9801C23.6631 12.0557 23.7519 12.0894 23.8274 12.0554C23.9905 11.982 24.1684 11.9307 24.3516 11.8907L24.3796 11.7226L24.3796 11.7226L24.4044 11.5735ZM26.2071 11.6894L26.3328 11.5009L26.4696 11.2956C26.472 11.2952 26.4745 11.2948 26.4769 11.2944C26.5382 11.2845 26.5828 11.2784 26.6081 11.2779C26.6123 11.2778 26.6192 11.2777 26.6272 11.2783L26.6276 11.2784C26.6317 11.2787 26.6549 11.2803 26.6804 11.2921C26.6928 11.2979 26.7306 11.3171 26.7529 11.3635C26.7806 11.4209 26.7647 11.4749 26.7471 11.5048C26.7324 11.53 26.7141 11.5443 26.7074 11.5493C26.6988 11.5558 26.6912 11.5601 26.6868 11.5624C26.6725 11.57 26.6588 11.5743 26.6547 11.5756L26.6544 11.5757C26.6477 11.5778 26.6408 11.5796 26.6346 11.5812C26.6116 11.587 26.5735 11.5949 26.5329 11.601C26.5168 11.6069 26.4994 11.6101 26.4812 11.6101C26.4676 11.6101 26.4535 11.6105 26.439 11.6111C26.4051 11.6214 26.3696 11.6342 26.3295 11.6486L26.3295 11.6486L26.3289 11.6488L26.3285 11.6489C26.292 11.662 26.2511 11.6767 26.2071 11.6894Z" fill="black"/>
<path d="M10.1154 15.1455C10.1517 15.1129 10.1957 15.1056 10.2397 15.088C10.287 15.069 10.3569 15.0343 10.4053 15.0236C10.4888 15.005 10.5496 15.0295 10.6284 14.9845C10.6733 14.9588 10.729 14.951 10.7791 14.9385C10.9708 14.8905 11.1378 14.761 11.3369 14.7326C11.4125 14.7218 11.5516 14.6475 11.6221 14.6072C11.6652 14.5826 11.7186 14.5457 11.7612 14.5267C11.7941 14.5121 11.8287 14.5358 11.859 14.5083C11.9825 14.3961 12.16 14.3779 12.2937 14.2806C12.3175 14.2633 12.4421 14.1932 12.4663 14.1932C12.5225 14.1932 12.5163 14.1681 12.5514 14.1357C12.5886 14.1013 12.6518 14.1083 12.6905 14.0782C12.744 14.0366 12.8104 13.9956 12.8699 13.954C12.94 13.9049 13.0542 13.892 13.1069 13.8217C13.1479 13.767 13.2652 13.7083 13.3288 13.6803C13.4071 13.6458 13.4796 13.5659 13.5635 13.5261C13.699 13.4619 13.8314 13.2823 13.9867 13.2823" stroke="black" stroke-width="0.3" stroke-linecap="round"/>
<path fill-rule="evenodd" clip-rule="evenodd" d="M6.7857 3.00946C8.38085 4.20517 9.73797 5.70115 10.7732 7.41352C11.4918 7.7695 12.0882 8.3351 12.4823 9.03039L12.5 9C12.5 9 12.9469 9.84055 13 10C13.0571 10.1713 13.1077 10.3492 13.1525 10.5299L17.1965 9.72108C16.6653 7.8824 15.8836 6.14998 14.8908 4.56315L13.606 3.70667L12.5046 3.29363C12.3415 3.28957 12.1797 3.28402 12.0209 3.27856L12.0209 3.27856L12.0188 3.27849C11.7121 3.26795 11.4164 3.25781 11.1248 3.25781C10.9697 3.25781 10.839 3.22091 10.7688 3.20106L10.7559 3.19743C10.6806 3.17639 10.6629 3.17394 10.6449 3.17394C10.4916 3.17394 10.3586 3.13758 10.2865 3.11785L10.2744 3.11457C10.1908 3.09189 10.1743 3.09007 10.1626 3.09007C10.0202 3.09007 9.88099 3.07811 9.7647 3.06812L9.75484 3.06727C9.62947 3.05651 9.52782 3.04813 9.42876 3.04813C8.89407 3.04813 8.36048 3.0376 7.83193 3.02716L7.82742 3.02707C7.47857 3.02018 7.13188 3.01335 6.7857 3.00946ZM13.4519 12.2594L13.413 12.065C13.4203 12.133 13.427 12.1997 13.4331 12.2648L13.4519 12.2594ZM13 15.4239C13 15.1058 12.9904 14.79 12.9715 14.4767L17.8673 13.0779C17.9549 13.8478 18 14.6306 18 15.4239C18 22.716 14.1935 29.1191 8.45912 32.7546C8.4398 32.7566 8.42082 32.7597 8.40641 32.7622C8.392 32.7647 8.36894 32.7692 8.37068 32.7689L8.36934 32.7691L8.368 32.7694L8.36665 32.7696L8.3653 32.7699L8.36395 32.7701L8.3626 32.7704L8.36125 32.7706L8.3599 32.7708L8.35855 32.7711L8.3572 32.7713L8.35585 32.7716L8.3545 32.7718L8.35316 32.7721L8.35181 32.7723L8.35046 32.7726L8.34911 32.7728L8.34776 32.7731L8.34641 32.7733L8.34506 32.7736L8.34371 32.7738L8.34236 32.774L8.34101 32.7743L8.33966 32.7745L8.33832 32.7748L8.33697 32.775L8.33562 32.7753L8.33427 32.7755L8.33292 32.7758L8.33157 32.776L8.33022 32.7763L8.32887 32.7765L8.32752 32.7767L8.32617 32.777L8.32482 32.7772L8.32348 32.7775L8.32213 32.7777L8.32078 32.778L8.31943 32.7782L8.31808 32.7785L8.31673 32.7787L8.31538 32.779L8.31403 32.7792L8.31268 32.7794L8.31133 32.7797L8.30998 32.7799L8.30863 32.7802L8.30729 32.7804L8.30594 32.7807L8.30459 32.7809L8.30324 32.7812L8.30189 32.7814L8.30054 32.7817L8.29919 32.7819L8.29784 32.7821L8.29649 32.7824L8.29514 32.7826L8.29379 32.7829L8.29245 32.7831L8.2911 32.7834L8.28975 32.7836L8.2884 32.7839L8.28705 32.7841L8.2857 32.7844L8.28435 32.7846L8.283 32.7849L8.28165 32.7851L8.2803 32.7853L8.27895 32.7856L8.27761 32.7858L8.27626 32.7861L8.27491 32.7863L8.27356 32.7866L8.27221 32.7868L8.27086 32.7871L8.26951 32.7873L8.26816 32.7876L8.26681 32.7878L8.26546 32.788L8.26411 32.7883L8.26277 32.7885L8.26142 32.7888L8.26007 32.789L8.25872 32.7893L8.25737 32.7895L8.25602 32.7898L8.25467 32.79L8.25332 32.7903L8.25197 32.7905L8.25062 32.7907L8.24927 32.791L8.24793 32.7912L8.24658 32.7915L8.24523 32.7917L8.24388 32.792L8.24253 32.7922L8.24118 32.7925L8.23983 32.7927L8.23848 32.793L8.23713 32.7932L8.23578 32.7934L8.23443 32.7937L8.23309 32.7939L8.23174 32.7942L8.23039 32.7944L8.22904 32.7947L8.22769 32.7949L8.22634 32.7952L8.22499 32.7954L8.22364 32.7957L8.22229 32.7959L8.22094 32.7962L8.21959 32.7964L8.21825 32.7966L8.2169 32.7969L8.21555 32.7971L8.2142 32.7974L8.21285 32.7976L8.2115 32.7979L8.21015 32.7981L8.2088 32.7984L8.20745 32.7986L8.2061 32.7989L8.20475 32.7991L8.20341 32.7993L8.20206 32.7996L8.20071 32.7998L8.19936 32.8001L8.19801 32.8003L8.19666 32.8006L8.19531 32.8008L8.19396 32.8011L8.19261 32.8013L8.19126 32.8016L8.18991 32.8018L8.18856 32.802L8.18722 32.8023L8.18587 32.8025L8.18452 32.8028L8.18317 32.803L8.18182 32.8033L8.18047 32.8035L8.17912 32.8038L8.17777 32.804L8.17642 32.8043L8.17507 32.8045L8.17372 32.8047L8.17238 32.805L8.17103 32.8052L8.16968 32.8055L8.16833 32.8057L8.16698 32.806L8.16563 32.8062L8.16428 32.8065L8.16293 32.8067L8.16158 32.807L8.16023 32.8072L8.15888 32.8075L8.15754 32.8077L8.15619 32.8079L8.15484 32.8082L8.15349 32.8084L8.15214 32.8087L8.15079 32.8089L8.14944 32.8092L8.14809 32.8094L8.14674 32.8097L8.14539 32.8099L8.14404 32.8102L8.1427 32.8104L8.14135 32.8106L8.14 32.8109L8.13865 32.8111L8.1373 32.8114L8.13595 32.8116L8.1346 32.8119L8.13325 32.8121L8.1319 32.8124L8.13055 32.8126L8.1292 32.8129L8.12786 32.8131L8.12651 32.8133L8.12516 32.8136L8.12381 32.8138L8.12246 32.8141L8.12111 32.8143L8.11976 32.8146L8.11841 32.8148L8.11706 32.8151L8.11571 32.8153L8.11436 32.8156L8.11302 32.8158L8.11167 32.816L8.11032 32.8163L8.10897 32.8165L8.10762 32.8168L8.10627 32.817L8.10492 32.8173L8.10357 32.8175L8.10222 32.8178L8.10087 32.818L8.09952 32.8183L8.09818 32.8185L8.09683 32.8188L8.09548 32.819L8.09413 32.8192L8.09278 32.8195L8.09143 32.8197L8.09008 32.82L8.08873 32.8202L8.08738 32.8205L8.08603 32.8207L8.08468 32.821L8.08334 32.8212L8.08199 32.8215L8.08064 32.8217L8.07929 32.8219L8.07794 32.8222L8.07659 32.8224L8.07524 32.8227L8.07389 32.8229L8.07254 32.8232L8.07119 32.8234L8.06984 32.8237L8.0685 32.8239L8.06715 32.8242L8.0658 32.8244L8.06445 32.8246L8.0631 32.8249L8.06175 32.8251L8.0604 32.8254L8.05905 32.8256L8.0577 32.8259L8.05635 32.8261L8.055 32.8264L8.05365 32.8266L8.05231 32.8269L8.05096 32.8271L8.04961 32.8273L8.04826 32.8276L8.04691 32.8278L8.04556 32.8281L8.04421 32.8283L8.04286 32.8286L8.04151 32.8288L8.04016 32.8291L8.03881 32.8293L8.03747 32.8296L8.03612 32.8298L8.03477 32.83L8.03342 32.8303L8.03207 32.8305L8.03072 32.8308L8.02937 32.831L8.02802 32.8313L8.02667 32.8315L8.02532 32.8318L8.02397 32.832L8.02263 32.8323L8.02128 32.8325L8.01993 32.8328L8.01858 32.833L8.01723 32.8332L8.01588 32.8335L8.01453 32.8337L8.01318 32.834L8.01183 32.8342L8.01048 32.8345L8.00913 32.8347L8.00779 32.835L8.00644 32.8352L8.00509 32.8355L8.00374 32.8357L8.00239 32.8359L8.00104 32.8362L7.99969 32.8364L7.99834 32.8367L7.99699 32.8369L7.99564 32.8372L7.99429 32.8374L7.99295 32.8377L7.9916 32.8379L7.99025 32.8382L7.9889 32.8384L7.98755 32.8386L7.9862 32.8389L7.98485 32.8391L7.9835 32.8394L7.98215 32.8396L7.9808 32.8399L7.97945 32.8401L7.97811 32.8404L7.97676 32.8406L7.97541 32.8409L7.97406 32.8411L7.97271 32.8414L7.97136 32.8416L7.97001 32.8418L7.96866 32.8421L7.96731 32.8423L7.96596 32.8426L7.96461 32.8428L7.96327 32.8431L7.96192 32.8433L7.96057 32.8436L7.95922 32.8438L7.95787 32.8441L7.95652 32.8443L7.95517 32.8445L7.95382 32.8448L7.95247 32.845L7.95112 32.8453L7.94977 32.8455L7.94843 32.8458L7.94708 32.846L7.94573 32.8463L7.94438 32.8465L7.94303 32.8468L7.94168 32.847L7.94033 32.8472L7.93898 32.8475L7.93763 32.8477L7.93628 32.848L7.93493 32.8482L7.93358 32.8485L7.93224 32.8487L7.93089 32.849L7.92954 32.8492L7.92819 32.8495L7.92684 32.8497L7.92549 32.8499L7.92414 32.8502L7.92279 32.8504L7.92144 32.8507L7.92009 32.8509L7.91874 32.8512L7.9174 32.8514L7.91605 32.8517L7.9147 32.8519L7.91335 32.8522L7.912 32.8524L7.91065 32.8526L7.9093 32.8529L7.90795 32.8531L7.9066 32.8534L7.90525 32.8536L7.9039 32.8539L7.90256 32.8541L7.90121 32.8544L7.89986 32.8546L7.89851 32.8549L7.89716 32.8551L7.89581 32.8554L7.89446 32.8556L7.89311 32.8558L7.89176 32.8561L7.89041 32.8563L7.88906 32.8566L7.88772 32.8568L7.88637 32.8571L7.88502 32.8573L7.88367 32.8576L7.88232 32.8578L7.88097 32.8581L7.87962 32.8583L7.87827 32.8585L7.87692 32.8588L7.87557 32.859L7.87422 32.8593L7.87288 32.8595L7.87153 32.8598L7.87018 32.86L7.86883 32.8603L7.86748 32.8605L7.86613 32.8608L7.86478 32.861L7.86343 32.8612L7.86208 32.8615L7.86073 32.8617L7.85938 32.862L7.85804 32.8622L7.85669 32.8625L7.85534 32.8627L7.85399 32.863L7.85264 32.8632L7.85129 32.8635L7.84994 32.8637L7.84859 32.8639L7.84724 32.8642L7.84589 32.8644L7.84454 32.8647L7.8432 32.8649L7.84185 32.8652L7.8405 32.8654L7.83915 32.8657L7.8378 32.8659L7.83645 32.8662L7.8351 32.8664L7.83375 32.8667L7.8324 32.8669L7.83105 32.8671L7.8297 32.8674L7.82836 32.8676L7.82701 32.8679L7.82566 32.8681L7.82431 32.8684L7.82296 32.8686L7.82161 32.8689L7.82026 32.8691L7.81891 32.8694L7.81756 32.8696L7.81621 32.8698L7.81486 32.8701L7.81352 32.8703L7.81217 32.8706L7.81082 32.8708L7.80947 32.8711L7.80812 32.8713L7.80677 32.8716L7.80542 32.8718L7.80407 32.8721L7.80272 32.8723L7.80137 32.8725L7.80002 32.8728L7.79867 32.873L7.79733 32.8733L7.79598 32.8735L7.79463 32.8738L7.79328 32.874L7.79193 32.8743L7.79058 32.8745L7.78923 32.8748L7.78788 32.875L7.78653 32.8752L7.78518 32.8755L7.78383 32.8757L7.78249 32.876L7.78114 32.8762L7.77979 32.8765L7.77844 32.8767L7.77709 32.877L7.77574 32.8772L7.77439 32.8775L7.77304 32.8777L7.77169 32.878L7.77034 32.8782L7.76899 32.8784L7.76765 32.8787L7.7663 32.8789L7.76495 32.8792L7.7636 32.8794L7.76225 32.8797L7.7609 32.8799L7.75955 32.8802L7.7582 32.8804L7.75685 32.8807L7.7555 32.8809L7.75415 32.8811L7.75281 32.8814L7.75146 32.8816L7.75011 32.8819L7.74876 32.8821L7.74741 32.8824L7.74606 32.8826L7.74471 32.8829L7.74336 32.8831L7.74201 32.8834L7.74066 32.8836L7.73931 32.8838L7.73797 32.8841L7.73662 32.8843L7.73527 32.8846L7.73392 32.8848L7.73257 32.8851L7.73122 32.8853L7.72987 32.8856L7.72852 32.8858L7.72717 32.8861L7.72582 32.8863L7.72447 32.8865L7.72313 32.8868L7.72178 32.887L7.72043 32.8873L7.71908 32.8875L7.71773 32.8878L7.71638 32.888L7.71503 32.8883L7.71368 32.8885L7.71233 32.8888L7.71098 32.889L7.70963 32.8893L7.70829 32.8895L7.70694 32.8897L7.70559 32.89L7.70424 32.8902L7.70289 32.8905L7.70154 32.8907L7.70019 32.891L7.69884 32.8912L7.69749 32.8915L7.69614 32.8917L7.69479 32.892L7.69345 32.8922L7.6921 32.8924L7.69075 32.8927L7.6894 32.8929L7.68805 32.8932L7.6867 32.8934L7.68535 32.8937L7.684 32.8939L7.68265 32.8942L7.6813 32.8944L7.67995 32.8947L7.67958 32.8947L7.67921 32.8948L7.67884 32.8949L7.67846 32.8949L7.67809 32.895L7.67772 32.8951L7.67735 32.8951L7.67697 32.8952L7.6766 32.8953L7.67623 32.8953L7.67585 32.8954L7.67548 32.8955L7.67511 32.8955L7.67474 32.8956L7.67436 32.8957L7.67399 32.8957L7.67362 32.8958L7.67325 32.8959L7.67287 32.8959L7.6725 32.896L7.67213 32.8961L7.67175 32.8961L7.67138 32.8962L7.67101 32.8963L7.67064 32.8964L7.67026 32.8964L7.66989 32.8965L7.66952 32.8966L7.66915 32.8966L7.66877 32.8967L7.6684 32.8968L7.66803 32.8968L7.66766 32.8969L7.66728 32.897L7.66691 32.897L7.66654 32.8971L7.66616 32.8972L7.66579 32.8972L7.66542 32.8973L7.66505 32.8974L7.66467 32.8974L7.6643 32.8975L7.66393 32.8976L7.66356 32.8976L7.66318 32.8977L7.66281 32.8978L7.66244 32.8978L7.66206 32.8979L7.66169 32.898L7.66132 32.898L7.66095 32.8981L7.66057 32.8982L7.6602 32.8983L7.65983 32.8983L7.65946 32.8984L7.65908 32.8985L7.65871 32.8985L7.65834 32.8986L7.65796 32.8987L7.65759 32.8987L7.65722 32.8988L7.65685 32.8989L7.65647 32.8989L7.6561 32.899L7.65573 32.8991L7.65536 32.8991L7.65498 32.8992L7.65461 32.8993L7.65424 32.8993L7.65387 32.8994L7.65349 32.8995L7.65312 32.8995L7.65275 32.8996L7.65237 32.8997L7.652 32.8997L7.65163 32.8998L7.65126 32.8999L7.65088 32.8999L7.65051 32.9L7.65014 32.9001L7.64977 32.9002L7.64939 32.9002L7.64902 32.9003L7.64865 32.9004L7.64827 32.9004L7.6479 32.9005L7.64753 32.9006L7.64716 32.9006L7.64678 32.9007L7.64641 32.9008L7.64604 32.9008L7.64567 32.9009L7.64529 32.901L7.64492 32.901L7.64455 32.9011L7.64417 32.9012L7.6438 32.9012L7.64343 32.9013L7.64306 32.9014L7.64268 32.9014L7.64231 32.9015L7.64194 32.9016L7.64157 32.9016L7.64119 32.9017L7.64082 32.9018L7.64045 32.9018L7.64008 32.9019L7.6397 32.902L7.63933 32.9021L7.63896 32.9021L7.63858 32.9022L7.63821 32.9023L7.63784 32.9023L7.63747 32.9024L7.63709 32.9025L7.63672 32.9025L7.63635 32.9026L7.63598 32.9027L7.6356 32.9027L7.63523 32.9028L7.63486 32.9029L7.63448 32.9029L7.63411 32.903L7.63374 32.9031L7.63337 32.9031L7.63299 32.9032L7.63262 32.9033L7.63225 32.9033L7.63188 32.9034L7.6315 32.9035L7.63113 32.9035L7.63076 32.9036L7.63039 32.9037L7.63001 32.9037L7.62964 32.9038L7.62927 32.9039L7.62889 32.904L7.62852 32.904L7.62815 32.9041L7.62778 32.9042L7.6274 32.9042L7.62703 32.9043L7.62666 32.9044L7.62629 32.9044L7.62591 32.9045L7.62554 32.9046L7.62517 32.9046L7.62479 32.9047L7.62442 32.9048L7.62405 32.9048L7.62368 32.9049L7.6233 32.905L7.62293 32.905L7.62256 32.9051L7.62219 32.9052L7.62181 32.9052L7.62144 32.9053L7.62107 32.9054L7.62069 32.9054L7.62032 32.9055L7.61995 32.9056L7.61958 32.9056L7.6192 32.9057L7.61883 32.9058L7.61846 32.9059L7.61809 32.9059L7.61771 32.906L7.61734 32.9061L7.61697 32.9061L7.6166 32.9062L7.61622 32.9063L7.61585 32.9063L7.61548 32.9064L7.6151 32.9065L7.61473 32.9065L7.61436 32.9066L7.61399 32.9067L7.61361 32.9067L7.61324 32.9068L7.61287 32.9069L7.6125 32.9069L7.61212 32.907L7.61175 32.9071L7.61138 32.9071L7.611 32.9072L7.61063 32.9073L7.61026 32.9073L7.60989 32.9074L7.60951 32.9075L7.60914 32.9075L7.60877 32.9076L7.6084 32.9077L7.60802 32.9078L7.60765 32.9078L7.60728 32.9079L7.6069 32.908L7.60653 32.908L7.60616 32.9081L7.60579 32.9082L7.60541 32.9082L7.60504 32.9083L7.60467 32.9084L7.6043 32.9084L7.60392 32.9085L7.60355 32.9086L7.60318 32.9086L7.60281 32.9087L7.60243 32.9088L7.60206 32.9088L7.60169 32.9089L7.60131 32.909L7.60094 32.909L7.60057 32.9091L7.6002 32.9092L7.59982 32.9092L7.59945 32.9093L7.59908 32.9094L7.59871 32.9094L7.59833 32.9095L7.59796 32.9096L7.59759 32.9097L7.59721 32.9097L7.59684 32.9098L7.59647 32.9099L7.5961 32.9099L7.59572 32.91L7.59535 32.9101L7.59498 32.9101L7.59461 32.9102L7.59423 32.9103L7.59386 32.9103L7.59349 32.9104L7.59311 32.9105L7.59274 32.9105L7.59237 32.9106L7.592 32.9107L7.59162 32.9107L7.59125 32.9108L7.59088 32.9109L7.59051 32.9109L7.59013 32.911L7.58976 32.9111L7.58939 32.9111L7.58902 32.9112L7.58864 32.9113L7.58827 32.9114L7.5879 32.9114L7.58752 32.9115L7.58715 32.9116L7.58678 32.9116L7.58641 32.9117L7.58603 32.9118L7.58566 32.9118L7.58529 32.9119L7.58492 32.912L7.58454 32.912L7.58417 32.9121L7.5838 32.9122L7.58342 32.9122L7.58305 32.9123L7.58268 32.9124L7.58231 32.9124L7.58193 32.9125L7.58156 32.9126L7.58119 32.9126L7.58082 32.9127L7.58044 32.9128L7.58007 32.9128L7.5797 32.9129L7.57933 32.913L7.57895 32.913L7.57858 32.9131L7.57821 32.9132L7.57783 32.9132L7.57746 32.9133L7.57709 32.9134L7.57672 32.9135L7.57634 32.9135L7.57597 32.9136L7.5756 32.9137L7.57523 32.9137L7.57485 32.9138L7.57448 32.9139L7.57411 32.9139L7.57373 32.914L7.57336 32.9141L7.57299 32.9141L7.57262 32.9142L7.57224 32.9143L7.57187 32.9143L7.5715 32.9144L7.57113 32.9145L7.57075 32.9145L7.57038 32.9146L7.57001 32.9147L7.56963 32.9147L7.56926 32.9148L7.56889 32.9149L7.56852 32.9149L7.56814 32.915L7.56777 32.9151L7.5674 32.9151L7.56703 32.9152L7.56665 32.9153L7.56628 32.9154L7.56591 32.9154L7.56554 32.9155L7.56516 32.9156L7.56479 32.9156L7.56442 32.9157L7.56404 32.9158L7.56367 32.9158L7.5633 32.9159L7.56293 32.916L7.56255 32.916L7.56218 32.9161L7.56181 32.9162L7.56144 32.9162L7.56106 32.9163L7.56069 32.9164L7.56032 32.9164L7.55994 32.9165L7.55957 32.9166L7.5592 32.9166L7.55883 32.9167L7.55845 32.9168L7.55808 32.9168L7.55771 32.9169L7.55734 32.917L7.55696 32.917L7.55659 32.9171L7.55622 32.9172L7.55584 32.9173L7.55547 32.9173L7.5551 32.9174L7.55473 32.9175L7.55435 32.9175L7.55398 32.9176L7.55361 32.9177L7.55324 32.9177L7.55286 32.9178L7.55249 32.9179L7.55212 32.9179L7.55175 32.918L7.55137 32.9181L7.551 32.9181L7.55063 32.9182L7.55025 32.9183L7.54988 32.9183L7.54951 32.9184L7.54914 32.9185L7.54876 32.9185L7.54839 32.9186L7.54802 32.9187L7.54765 32.9187L7.54727 32.9188L7.5469 32.9189L7.54653 32.919L7.54615 32.919L7.54578 32.9191L7.54541 32.9192L7.54504 32.9192L7.54466 32.9193L7.54429 32.9194L7.54392 32.9194L7.54355 32.9195L7.54317 32.9196L7.5428 32.9196L7.54243 32.9197L7.54205 32.9198L7.54168 32.9198L7.54131 32.9199L7.54094 32.92L7.54056 32.92L7.54019 32.9201L7.53982 32.9202L7.53945 32.9202L7.53907 32.9203L7.5387 32.9204L7.53833 32.9204L7.53796 32.9205L7.53758 32.9206L7.53721 32.9206L7.53684 32.9207L7.53646 32.9208L7.53609 32.9209L7.53572 32.9209L7.53535 32.921L7.53497 32.9211L7.5346 32.9211L7.53423 32.9212L7.53386 32.9213L7.53348 32.9213L7.53311 32.9214L7.53274 32.9215L7.53236 32.9215L7.53199 32.9216L7.53162 32.9217L7.53125 32.9217L7.53087 32.9218L7.5305 32.9219L7.53013 32.9219L7.52976 32.922L7.52938 32.9221L7.52901 32.9221L7.52864 32.9222L7.52826 32.9223L7.52789 32.9223L7.52752 32.9224L7.52715 32.9225L7.52677 32.9225L7.5264 32.9226L7.52603 32.9227L7.52566 32.9228L7.52528 32.9228L7.52491 32.9229L7.52454 32.923L7.52417 32.923L7.52379 32.9231L7.52342 32.9232L7.52305 32.9232L7.52267 32.9233L7.5223 32.9234L7.52193 32.9234L7.52156 32.9235L7.52118 32.9236L7.52081 32.9236L7.52044 32.9237L7.52007 32.9238L7.51969 32.9238L7.51932 32.9239L7.51895 32.924L7.51857 32.924L7.5182 32.9241L7.51783 32.9242L7.51746 32.9242L7.51708 32.9243L7.51671 32.9244L7.51634 32.9244L7.51597 32.9245L7.51559 32.9246L7.51522 32.9247L7.51485 32.9247L7.51448 32.9248L7.5141 32.9249L7.51373 32.9249L7.51336 32.925L7.51298 32.9251L7.51261 32.9251L7.51224 32.9252L7.51187 32.9253L7.51149 32.9253L7.51112 32.9254L7.51075 32.9255L7.51038 32.9255L7.51 32.9256L7.50963 32.9257L7.50926 32.9257L7.50888 32.9258L7.50851 32.9259L7.50814 32.9259L7.50777 32.926L7.50739 32.9261L7.50702 32.9261L7.50665 32.9262L7.50628 32.9263L7.5059 32.9263L7.50553 32.9264L7.50516 32.9265L7.50478 32.9266L7.50441 32.9266L7.50404 32.9267L7.50367 32.9268L7.50329 32.9268L7.50292 32.9269L7.50255 32.927L7.50218 32.927L7.5018 32.9271L7.50143 32.9272L7.50106 32.9272L7.50069 32.9273L7.50031 32.9274L7.49994 32.9274L7.49957 32.9275L7.49919 32.9276L7.49882 32.9276L7.49845 32.9277L7.49808 32.9278L7.4977 32.9278L7.49733 32.9279L7.49696 32.928L7.49659 32.928L7.49621 32.9281L7.49584 32.9282L7.49547 32.9282L7.49509 32.9283L7.49472 32.9284L7.49435 32.9285L7.49398 32.9285L7.4936 32.9286L7.49323 32.9287L7.49286 32.9287L7.49249 32.9288L7.49211 32.9289L7.49174 32.9289L7.49137 32.929L7.49099 32.9291L7.49062 32.9291L7.49025 32.9292L7.48988 32.9293L7.4895 32.9293L7.48913 32.9294C7.47237 32.9325 7.45631 32.9341 7.43693 32.9348L7.43354 32.934L7.43298 32.9339C7.4278 32.9327 7.41706 32.9301 7.40522 32.9284C7.39247 32.9265 7.37368 32.9247 7.35171 32.9271C7.26057 32.937 7.16299 32.9571 7.07516 32.9752L7.07514 32.9752H7.07513L7.064 32.9775C6.82334 31.9778 6.70006 30.9852 6.771 30.0704C6.83642 29.2268 7.08035 28.2777 7.39037 27.3612C10.8175 24.5172 13 20.2254 13 15.4239Z" fill="black"/>
<path d="M10.9228 15.1248C11.2613 15.1248 11.5518 15.0044 11.8797 14.9592C11.9534 14.949 12.0096 14.8823 12.0729 14.8763C12.3413 14.8512 11.5339 14.8763 11.2644 14.8763C11.0633 14.8763 11.1736 14.8673 11.2909 14.851C11.3605 14.8414 11.4224 14.809 11.4887 14.797C11.5866 14.7792 11.3477 14.9375 11.2736 15.004C11.2006 15.0695 11.1309 15.0972 11.2725 15.0489C11.4631 14.9837 11.6633 14.9275 11.859 14.8798C11.9394 14.8602 12.0087 14.8658 11.9947 14.7636C11.9802 14.657 11.9388 14.6279 11.8441 14.6279C11.7709 14.6279 11.7314 14.7107 11.6577 14.7107C11.5942 14.7107 11.5123 14.7554 11.445 14.7682C11.3758 14.7814 11.3097 14.7999 11.2414 14.8142C11.0629 14.8518 10.8931 14.8933 10.7158 14.9339C10.6107 14.9579 10.4742 14.9039 10.3754 14.9488C10.3491 14.9608 10.2476 14.9592 10.3271 14.9592C10.3904 14.9592 10.4391 14.9451 10.4927 14.9385C10.5333 14.9334 10.5976 14.8666 10.6445 14.8453C10.6777 14.8302 10.7133 14.8444 10.7457 14.8326C10.7812 14.8197 10.7804 14.7935 10.8239 14.7935C10.9583 14.7935 11.0776 14.7285 11.2104 14.7096C11.2525 14.7036 11.2759 14.6711 11.3208 14.6693C11.3687 14.6674 11.4829 14.6345 11.5186 14.6026C11.6146 14.5169 11.7227 14.4954 11.8326 14.4405C11.8876 14.413 11.9293 14.395 11.9947 14.3749C12.0546 14.3565 12.1288 14.3574 12.1856 14.3335C12.3003 14.2852 12.4008 14.2192 12.5088 14.161C12.653 14.0833 12.8089 14.0356 12.9516 13.9609C13.0604 13.9039 13.1602 13.8268 13.2725 13.7768C13.3027 13.7634 13.3892 13.6998 13.4163 13.6756C13.4539 13.642 13.5101 13.591 13.552 13.5641C13.6203 13.5201 13.6632 13.3898 13.7636 13.3858C13.8888 13.3808 13.9853 13.3197 14.1098 13.3042C14.1756 13.2959 14.2341 13.2848 14.2926 13.2501C14.3451 13.219 14.4163 13.262 14.4674 13.2248C14.5253 13.1827 14.7595 13.2202 14.8355 13.2202C14.9114 13.2202 14.9873 13.2202 15.0632 13.2202C15.1625 13.2202 15.261 13.1581 15.3645 13.1581C15.4292 13.1581 15.5135 13.1386 15.5761 13.1213C15.6244 13.108 15.6728 13.1287 15.7153 13.096C15.7546 13.0657 15.8171 13.0563 15.866 13.0546C16.0166 13.0494 16.1457 13.0524 16.2846 13.0028C16.4218 12.9538 16.5861 12.966 16.7286 12.9281C16.7997 12.9091 16.8517 12.8977 16.9264 12.889C16.9584 12.8852 16.9612 12.8476 17.008 12.8476C17.0428 12.8476 17.0607 12.8446 17.092 12.8315C17.1365 12.8127 17.1999 12.7971 17.2472 12.7866C17.3179 12.7709 17.3716 12.7486 17.4347 12.7257C17.4633 12.7153 17.5057 12.7234 17.5359 12.7234C17.5727 12.7234 17.5795 12.6858 17.6141 12.6819C17.6984 12.6726 17.7645 12.6502 17.8419 12.6244C17.9082 12.6023 17.9663 12.614 18.0339 12.5784C18.1052 12.5409 18.2311 12.594 18.2823 12.537C18.323 12.4918 18.5386 12.4749 18.6032 12.4749C18.7458 12.4749 18.9481 12.4482 19.069 12.3944C19.1056 12.3782 19.218 12.4187 19.2404 12.3829C19.2616 12.3489 19.3485 12.33 19.3485 12.33" stroke="black" stroke-width="0.3" stroke-linecap="round"/>
<path fill-rule="evenodd" clip-rule="evenodd" d="M9 15C9.40382 15 9.79365 14.9402 10.1611 14.8289C10.234 14.8157 10.3082 14.8018 10.3831 14.7871C10.6266 14.9776 10.9547 15.053 11.2747 14.9615L17.751 13.1112C16.801 17.0632 13.2435 20 9 20C4.02944 20 0 15.9706 0 11C0 6.02944 4.02944 2 9 2C13.4883 2 17.2092 5.28545 17.889 9.58259L13.1525 10.5299C13.1077 10.3492 13.0571 10.1713 13 10C12.9468 9.84055 12.5 9 12.5 9L12.4823 9.03039C11.7951 7.81805 10.4931 7 9 7C6.79086 7 5 8.79086 5 11C5 13.2091 6.79086 15 9 15ZM13.413 12.065C13.4203 12.133 13.427 12.1997 13.4331 12.2648L13.4519 12.2594L13.413 12.065Z" fill="black"/>
<path d="M13.4949 13.5283C13.5573 13.5283 13.7551 13.5328 13.7651 13.4532C13.7715 13.4014 13.9805 13.3465 14.0338 13.3377C14.1141 13.3243 14.1627 13.2851 14.2514 13.2851C14.2908 13.2851 14.3507 13.2489 14.3805 13.2251C14.4251 13.1894 14.483 13.2187 14.5276 13.183C14.5845 13.1375 14.6967 13.1593 14.7648 13.129C14.855 13.0889 14.9809 13.112 15.077 13.0945C15.1731 13.077 15.3334 13.0928 15.4148 13.0419C15.5133 12.9803 15.7003 12.9879 15.8185 12.9879C16.0701 12.9879 16.2979 12.8798 16.5616 12.8798C16.846 12.8798 17.1224 12.7718 17.4127 12.7718C17.5238 12.7718 17.6127 12.7285 17.7159 12.6967C17.8405 12.6584 17.9768 12.6899 18.1017 12.6622C18.2584 12.6273 18.3991 12.582 18.561 12.5571C18.626 12.5471 18.6981 12.5556 18.7637 12.5556C18.8296 12.5556 18.8527 12.5016 18.9258 12.5016" stroke="black" stroke-width="0.3" stroke-linecap="round"/>
<path d="M13.8727 13.1981C13.8753 13.1773 13.9028 13.1839 13.9191 13.1839C13.9436 13.1839 13.9572 13.1696 13.9798 13.1696C14.0329 13.1696 14.0903 13.1625 14.1403 13.1625C14.1809 13.1625 14.2407 13.1503 14.2738 13.13C14.2977 13.1153 14.3318 13.1312 14.3579 13.1125C14.3772 13.0987 14.4099 13.1029 14.4328 13.0978C14.4815 13.087 14.5439 13.0697 14.5933 13.0697C14.6936 13.0697 14.7884 13.034 14.8898 13.034C14.9301 13.034 14.9815 13.0231 15.0213 13.0142C15.0673 13.004 15.1225 13.0014 15.1696 12.9984C15.1924 12.9969 15.2118 12.9848 15.2354 12.9841C15.2643 12.9833 15.2933 12.9841 15.3222 12.9841C15.3837 12.9841 15.4481 12.975 15.5092 12.9663C15.5547 12.9598 15.6049 12.9636 15.6492 12.954C15.7042 12.9421 15.7556 12.9297 15.8125 12.9274C15.8612 12.9255 15.9115 12.9214 15.9599 12.9143C16.0207 12.9055 16.0849 12.9143 16.1454 12.904C16.1737 12.8992 16.1994 12.8858 16.2286 12.8842C16.2665 12.8822 16.3046 12.8802 16.342 12.8735C16.3942 12.8642 16.4452 12.8602 16.4977 12.8489C16.575 12.8324 16.655 12.8356 16.7328 12.824C16.7894 12.8155 16.8512 12.801 16.9079 12.7986C17.0188 12.7939 17.1294 12.7676 17.2397 12.7566C17.2586 12.7547 17.2781 12.7558 17.2972 12.7558C17.3156 12.7558 17.326 12.7429 17.3439 12.7415C17.3887 12.738 17.4323 12.7282 17.4771 12.7273C17.5018 12.7268 17.5662 12.7236 17.5857 12.7059C17.5979 12.6947 17.6151 12.6987 17.6309 12.6987C17.6528 12.6987 17.6656 12.69 17.686 12.6853C17.7746 12.6644 17.8657 12.6565 17.9535 12.6345" stroke="black" stroke-width="0.3" stroke-linecap="round"/>
<path d="M13.9655 13.191C13.9224 13.191 13.8865 13.2052 13.8529 13.2354C13.8215 13.2636 13.7837 13.2818 13.7554 13.3127C13.7385 13.3311 13.7195 13.3488 13.6988 13.3626C13.6822 13.3737 13.6731 13.4018 13.6555 13.4106C13.6147 13.431 13.5886 13.4856 13.5509 13.5152C13.5084 13.5486 13.471 13.6021 13.4237 13.6258C13.4014 13.6369 13.3691 13.6679 13.3523 13.6864C13.3346 13.7059 13.3017 13.7113 13.2822 13.7308C13.2374 13.7756 13.1784 13.7937 13.1272 13.8331C13.1075 13.8483 13.0797 13.867 13.0591 13.879C13.0457 13.8868 13.0321 13.8951 13.017 13.8977C13.0098 13.8989 13.0013 13.9197 12.9952 13.9258" stroke="black" stroke-width="0.3" stroke-linecap="round"/>
<path d="M11.4257 14.5322C11.4533 14.5322 11.4776 14.5293 11.5042 14.5255C11.516 14.5238 11.5282 14.5268 11.5399 14.5235C11.555 14.5192 11.5638 14.5061 11.5795 14.5033C11.607 14.4983 11.6686 14.4755 11.6857 14.4537C11.7096 14.4233 11.7669 14.4005 11.8007 14.3828C11.9269 14.3164 12.0747 14.2745 12.1994 14.1969C12.2166 14.1862 12.2293 14.1856 12.2477 14.1811C12.2643 14.177 12.2773 14.1594 12.2921 14.1505C12.3295 14.1281 12.3696 14.1101 12.4102 14.0935C12.4857 14.0626 12.5588 14.0342 12.6346 14.0039C12.7874 13.9427 12.9384 13.8767 13.0729 13.7796C13.1222 13.744 13.169 13.7047 13.218 13.669C13.2535 13.643 13.2864 13.6064 13.3234 13.5849C13.4142 13.5324 13.4892 13.4611 13.5739 13.4046C13.652 13.3526 13.7301 13.3116 13.8133 13.2623C13.8977 13.2123 14.0022 13.193 14.0939 13.1624" stroke="black" stroke-width="0.3" stroke-linecap="round"/>
<path d="M9.46382 15.1101C9.46768 15.0792 9.63086 15.0653 9.66041 15.0562C9.71605 15.0391 9.78028 15.0598 9.8348 15.0427C9.89399 15.0241 9.95419 15.0168 10.0155 15.0086C10.0839 14.9995 10.147 14.9733 10.2145 14.9587C10.2961 14.9409 10.3726 14.9157 10.4555 14.9016C10.5349 14.8881 10.6104 14.8642 10.6893 14.8477C10.7241 14.8404 10.7523 14.8189 10.7892 14.8176C10.8131 14.8167 10.8209 14.7975 10.8439 14.7962C10.8751 14.7944 10.8885 14.773 10.916 14.7637C10.9497 14.7522 10.9856 14.7411 11.0191 14.7248C11.1098 14.6806 11.2083 14.6432 11.2949 14.5925C11.3072 14.5853 11.3224 14.5932 11.3346 14.5861C11.3524 14.5756 11.3691 14.5683 11.3885 14.5607C11.4123 14.5514 11.4371 14.5346 11.4614 14.5322C11.4921 14.5291 11.5387 14.4941 11.5629 14.4783C11.5729 14.4717 11.5861 14.4772 11.5969 14.472C11.6092 14.466 11.6202 14.4581 11.6326 14.4521C11.6643 14.4371 11.7005 14.4252 11.7341 14.4149C11.8181 14.389 11.9093 14.3712 11.9893 14.3356C12.0401 14.313 12.1255 14.3141 12.1677 14.2786C12.1854 14.2637 12.2285 14.2562 12.2517 14.2484C12.2734 14.2412 12.2944 14.2326 12.3175 14.2326" stroke="black" stroke-width="0.3" stroke-linecap="round"/>
<path d="M13.1308 10.2303C13.1308 10.3121 13.192 10.4049 13.2485 10.4614C13.3359 10.5488 13.4947 10.5054 13.6044 10.4939C13.6683 10.4871 13.7296 10.4416 13.7887 10.4372C13.832 10.434 13.8854 10.4281 13.9195 10.4184C13.9315 10.415 13.9457 10.4085 13.9583 10.4093C13.9699 10.41 13.9448 10.387 13.9648 10.3781C13.9909 10.3665 14.0255 10.3805 14.0538 10.3693C14.1011 10.3506 14.129 10.3308 14.1807 10.3288C14.2774 10.3251 14.3858 10.2812 14.4865 10.2812C14.5397 10.2812 14.5672 10.2495 14.6213 10.2495C14.6739 10.2495 14.7265 10.2495 14.779 10.2495C14.8523 10.2495 14.9293 10.2019 15.009 10.2019C15.0857 10.2019 15.1603 10.1847 15.2364 10.1737C15.3881 10.1517 15.5291 10.1181 15.677 10.0829C15.8106 10.0511 15.9673 10.0278 16.0876 9.97101C16.1425 9.94508 16.21 9.93843 16.2656 9.9199C16.3115 9.90461 16.3605 9.90054 16.4066 9.88465C16.4821 9.85863 16.5747 9.89142 16.6436 9.85205C16.7224 9.80706 16.8188 9.81429 16.9045 9.7886C16.9675 9.76969 17.0098 9.7419 17.0798 9.7419C17.1267 9.7419 17.235 9.72365 17.2737 9.69784C17.3166 9.66921 17.4307 9.67479 17.4825 9.66259C17.5307 9.65127 17.5693 9.61501 17.6121 9.61501C17.6717 9.61501 17.6943 9.58328 17.746 9.58328" stroke="black" stroke-width="0.3" stroke-linecap="round"/>
<path d="M12.3214 8.55228C12.328 8.60524 12.432 8.65054 12.4518 8.68798C12.4842 8.74913 12.5462 8.78866 12.5787 8.85364C12.5973 8.89089 12.6138 8.95113 12.6386 8.98054C12.6559 9.00105 12.6998 9.06089 12.7021 9.08804C12.7053 9.12683 12.7396 9.17562 12.7532 9.21493C12.7637 9.24548 12.8089 9.27567 12.8131 9.29777C12.8277 9.37556 12.8907 9.50228 12.9329 9.57094C12.9543 9.60571 12.9558 9.65773 12.9558 9.69783C12.9558 9.7531 12.992 9.79904 13.0069 9.84939C13.032 9.9341 13.1109 10.0046 13.1145 10.0944C13.1168 10.1518 13.1541 10.3307 13.2096 10.3446" stroke="black" stroke-width="0.3" stroke-linecap="round"/>
<path fill-rule="evenodd" clip-rule="evenodd" d="M24.2771 12.3373C21.7104 13.9227 20 16.7616 20 20C20 24.9706 24.0294 29 29 29C33.9706 29 38 24.9706 38 20C38 15.0294 33.9706 11 29 11C28.1017 11 27.2342 11.1316 26.4156 11.3766L26 12V14.5L26.5 16.5L26.667 16.7505C27.3237 16.2782 28.1294 16 29 16C31.2091 16 33 17.7909 33 20C33 22.2091 31.2091 24 29 24C28.2771 24 27.5989 23.8082 27.0136 23.4727L27 23.5C27 23.5 26.9376 23.4502 26.8365 23.365C26.3852 23.0742 25.9961 22.6951 25.6938 22.2521C25.6229 22.1672 25.5574 22.0826 25.5 22C24.8999 21.1365 24.5 20 24.5 20C24.5 20 24.1211 18.6055 24 18C23.8312 17.1558 23.8886 16.2269 23.9449 15.3171C23.9726 14.8693 24 14.4262 24 14L24.2771 12.3373Z" fill="black"/>
<path fill-rule="evenodd" clip-rule="evenodd" d="M19 15C19 9.83744 20.8629 5.10997 23.9531 1.45316L25 2.50001C25.2712 2.77118 27.0896 3.21086 28.804 3.56981C26.7552 5.57689 25.2438 8.1304 24.5055 10.9945L24.5 11L24.4924 11.0457C24.2759 11.8973 24.1277 12.7761 24.054 13.6761L24 14C24 14.4262 23.9726 14.8693 23.9449 15.3171C23.8886 16.2269 23.8312 17.1558 24 18C24.1211 18.6055 24.5 20 24.5 20C24.5 20 24.8999 21.1365 25.5 22C25.5574 22.0826 25.6229 22.1672 25.6938 22.2521C25.7386 22.3178 25.7854 22.3821 25.834 22.4449C26.996 24.6515 28.6585 26.5535 30.6705 28H29.5H28.5C28.5 28 27.3008 28.0828 26.5 28C26.2336 27.9724 26.0176 27.9926 25.8066 28.0124C25.5561 28.0358 25.3125 28.0586 25 28C24.9477 27.9902 24.8981 27.9797 24.8508 27.9686C24.4294 27.7828 24.0311 27.5795 23.7128 27.4074C23.5243 27.2865 23.3011 27.1505 23 27C22.8386 26.9193 22.7168 26.8122 22.6071 26.7156L22.607 26.7155C22.5762 26.6884 22.5463 26.6621 22.5168 26.6375C20.295 23.3064 19 19.3044 19 15Z" fill="black"/>
<path fill-rule="evenodd" clip-rule="evenodd" d="M24.4111 11.5333C24.1203 11.4848 23.8159 11.4873 23.5097 11.5485L13.5097 13.5485C12.1558 13.8193 11.2778 15.1364 11.5485 16.4903C11.8193 17.8442 13.1364 18.7222 14.4903 18.4514L23.8887 16.5718C23.893 16.1562 23.9191 15.7347 23.9449 15.3171C23.9726 14.8693 24 14.4262 24 14L24.4111 11.5333ZM26.1807 15.2227C26.4626 14.7204 26.5733 14.1188 26.4514 13.5097C26.3756 13.1306 26.2177 12.7888 26 12.499V14.5L26.1807 15.2227Z" fill="black"/>
<path d="M26.4078 11.4619C26.4329 11.4604 26.5053 11.4527 26.5261 11.4397C26.5513 11.4239 26.6155 11.4027 26.6445 11.4027C26.6975 11.4027 26.7247 11.3788 26.7768 11.3723C26.8222 11.3666 26.8718 11.351 26.9174 11.3427C27.0846 11.3123 27.2706 11.3287 27.4434 11.3287" stroke="black" stroke-width="0.3" stroke-linecap="round"/>
<path d="M27.6061 11.1956C27.5855 11.2002 27.5805 11.2235 27.5584 11.2252C27.5399 11.2265 27.5073 11.2176 27.491 11.2285C27.4611 11.2484 27.4062 11.2696 27.3694 11.2696C27.2976 11.2696 27.2247 11.2964 27.1508 11.2991C27.1121 11.3006 27.0729 11.3257 27.0324 11.3287C26.9882 11.332 26.9076 11.3427 26.8697 11.3649C26.8138 11.3977 26.6724 11.4011 26.6297 11.4545C26.6079 11.4817 26.5228 11.5252 26.4883 11.535C26.4631 11.5422 26.4377 11.5521 26.4143 11.5654C26.382 11.5839 26.3622 11.6356 26.3305 11.6394C26.2324 11.6512 26.1904 11.9188 26.1694 11.9871C26.1218 12.1419 26.0527 12.2728 26.0527 12.4416C26.0527 12.5491 26.0606 12.6599 26.0527 12.7671C26.0489 12.818 26.0231 12.8585 26.0231 12.915C26.0231 12.9654 26.0231 13.0158 26.0231 13.0662C26.0231 13.4378 26.0379 13.8054 26.0379 14.1766C26.0379 14.5048 25.9591 14.887 26.0938 15.19C26.1072 15.2201 26.1099 15.2749 26.1119 15.3084C26.1137 15.3395 26.1527 15.3641 26.1563 15.3938C26.1672 15.4848 26.2392 15.579 26.282 15.656C26.3128 15.7115 26.3503 15.8098 26.3626 15.8771C26.3704 15.9202 26.3987 15.9499 26.4069 15.9955C26.4096 16.0102 26.4078 16.0266 26.4078 16.0415C26.4078 16.0721 26.4352 16.0765 26.4374 16.104C26.4413 16.1527 26.4503 16.2103 26.4702 16.2552C26.48 16.2771 26.4803 16.2901 26.4817 16.3144C26.4833 16.3411 26.5087 16.3503 26.5113 16.3735C26.5152 16.4085 26.5261 16.4355 26.5261 16.4738C26.5261 16.5085 26.5615 16.5234 26.5697 16.5601C26.5842 16.6256 26.629 16.6749 26.6971 16.6555C26.7222 16.6483 26.7792 16.5973 26.7982 16.5741C26.8191 16.5485 26.8128 16.4986 26.8253 16.4689C26.8348 16.4463 26.8603 16.4203 26.8812 16.4146C26.917 16.4049 26.9671 16.3755 26.9995 16.3735C27.0814 16.3687 27.1465 16.3158 27.2223 16.2922C27.2394 16.2868 27.3003 16.2602 27.3102 16.2478C27.3234 16.2313 27.348 16.1882 27.3636 16.1812C27.4975 16.1217 27.4943 16.0341 27.399 15.9149" stroke="black" stroke-width="0.3" stroke-linecap="round"/>
<path d="M26.1119 15.1308C26.0027 15.1377 26.0422 15.5533 26.0691 15.6273C26.1402 15.8226 26.2311 16.0274 26.3322 16.2042C26.3641 16.2601 26.3642 16.3182 26.4111 16.3703C26.4499 16.4134 26.5005 16.4751 26.5294 16.5297C26.5653 16.5975 26.6663 16.5955 26.73 16.5955C26.8185 16.5955 26.8537 16.5519 26.9338 16.5182C26.9881 16.4953 27.0696 16.4376 27.1031 16.3957C27.1276 16.3651 27.1428 16.3355 27.1705 16.3078C27.2065 16.2718 27.2549 16.281 27.3028 16.2626C27.3424 16.2474 27.4131 16.242 27.4549 16.2404C27.4955 16.2388 27.5094 16.2118 27.5412 16.1977C27.575 16.1826 27.6145 16.1783 27.6505 16.1631C27.6836 16.1492 27.7134 16.1434 27.7466 16.136C27.7884 16.1267 27.8228 16.0912 27.8584 16.0793C27.8752 16.0737 27.8992 16.0777 27.9168 16.0777C27.9471 16.0777 27.9446 16.0516 27.9727 16.0481C28.0206 16.0421 28.1424 16.0047 28.1716 15.9659C28.1885 15.9432 28.2675 15.9533 28.294 15.9289C28.3374 15.8889 28.3666 15.9164 28.4132 15.8968C28.5194 15.8521 28.5973 15.8951 28.5973 15.7522" stroke="black" stroke-width="0.3" stroke-linecap="round"/>
<path d="M28.3705 11.2475C28.3648 11.2704 28.2058 11.2622 28.1778 11.2582C28.1542 11.2548 28.1074 11.2422 28.0871 11.2292C28.057 11.2098 28.0258 11.2062 28.0028 11.1845C27.9705 11.154 27.874 11.1568 27.8321 11.1568C27.7714 11.1568 27.7171 11.1455 27.6558 11.1455C27.5883 11.1455 27.5197 11.1419 27.4524 11.1455C27.3908 11.1487 27.3431 11.1998 27.2849 11.2021C27.1316 11.2083 26.9848 11.2535 26.8409 11.2985C26.7944 11.313 26.7479 11.324 26.7043 11.347C26.6887 11.3552 26.6779 11.3753 26.6627 11.381C26.6473 11.3867 26.6267 11.3775 26.6136 11.3885C26.5873 11.4106 26.5571 11.4218 26.5286 11.4408C26.484 11.4705 26.4352 11.508 26.3844 11.5283C26.3371 11.5473 26.2979 11.6099 26.2647 11.6467C26.2276 11.688 26.2306 11.7505 26.2043 11.7966C26.1687 11.8589 26.1715 11.9036 26.1715 11.9786C26.1715 12.0581 26.1407 12.14 26.1375 12.2198C26.1368 12.2382 26.1364 12.3161 26.1205 12.3224C26.1028 12.3295 26.129 12.2847 26.1375 12.2676" stroke="black" stroke-width="0.3" stroke-linecap="round"/>
<path d="M27.7244 11.1682C27.8453 11.1682 27.9662 11.1682 28.0871 11.1682C28.2106 11.1682 28.3159 11.2135 28.4385 11.2135" stroke="black" stroke-width="0.3" stroke-linecap="round"/>
<path d="M26.8063 11.3608C26.7859 11.3634 26.7695 11.3908 26.749 11.3942C26.721 11.3989 26.6993 11.4045 26.6702 11.4062C26.6404 11.4079 26.5461 11.4639 26.5229 11.4175" stroke="black" stroke-width="0.3" stroke-linecap="round"/>
<path d="M26.3075 11.7009C26.3048 11.7258 26.2691 11.7631 26.2534 11.7828C26.2473 11.7904 26.2512 11.8077 26.2509 11.8168C26.25 11.8386 26.2331 11.8407 26.2219 11.8571C26.2041 11.8833 26.1262 11.9396 26.1262 11.9673C26.1262 11.996 26.0922 11.9951 26.0922 12.029C26.0922 12.0518 26.0989 12.0892 26.0865 12.109C26.0579 12.1547 26.0822 12.2364 26.067 12.2878C26.0501 12.3447 26.0582 12.4097 26.0582 12.4692C26.0582 12.53 26.0468 12.5886 26.0468 12.6474C26.0468 12.753 25.9582 12.8612 26.0128 12.9704" stroke="black" stroke-width="0.3" stroke-linecap="round"/>
<path d="M25.9675 14.8407C25.9675 14.8823 25.9902 14.9167 25.9902 14.954C25.9902 14.9926 25.9887 15.0314 25.9902 15.0699C25.9919 15.1139 26.0015 15.1563 26.0015 15.2022C26.0015 15.2265 26.0222 15.2201 26.0242 15.2374C26.0265 15.2587 26.0242 15.2815 26.0242 15.3029C26.0242 15.3772 26.0316 15.4467 26.0355 15.5208C26.0385 15.577 26.0594 15.68 26.1149 15.7022" stroke="black" stroke-width="0.3" stroke-linecap="round"/>
<path d="M26.9196 16.575C26.8791 16.575 26.9831 16.575 27.0015 16.575C27.0247 16.575 27.0501 16.5702 27.067 16.5523C27.0774 16.5413 27.0751 16.5241 27.0852 16.5139C27.0969 16.5022 27.1164 16.5029 27.1293 16.49C27.1967 16.4226 27.2641 16.37 27.3441 16.3243C27.3708 16.3091 27.4038 16.2853 27.4347 16.2677C27.451 16.2584 27.4587 16.2407 27.482 16.2355C27.5162 16.2279 27.5136 16.2174 27.5431 16.2034C27.598 16.1774 27.6592 16.1543 27.7074 16.1222C27.7459 16.0966 27.8291 16.0536 27.8718 16.0536" stroke="black" stroke-width="0.3" stroke-linecap="round"/>
<path d="M26.5113 16.4327C26.516 16.4702 26.581 16.5481 26.6075 16.5798C26.6494 16.6302 26.6892 16.7138 26.7595 16.7138C26.8257 16.7138 26.9382 16.7218 26.9543 16.6333C26.9668 16.5648 27.0384 16.5103 27.0883 16.4771" stroke="black" stroke-width="0.3" stroke-linecap="round"/>
</svg>
